# xmcd
# 
# Track frame offsets:
#     150
#     26483
#     50828
# 
# Disc length: 884
# 
# Revision: 10
# Processed by: cddbd v1.5.2PL0 Copyright (c) Steve Scherf et al.
# Submitted via: fre:ac v1.0.17
# 
DISCID=21037203
DTITLE=Depeche Mode - Personal Jesus
DYEAR=1989
DGENRE=Electronic
TTITLE0=Personal Jesus (Hoiler Than)
TTITLE1=Dangerous (Sensual Mix)
TTITLE2=Personal Jesus (Accoustic)
EXTD=
EXTT0=
EXTT1=
EXTT2=
PLAYORDER=
